<?xml version="1.0" encoding="UTF-8"?>
<svg version="1.1" xmlns="http://www.w3.org/2000/svg" width="150" height="150">
<path d="M0 0 C49.5 0 99 0 150 0 C150 49.5 150 99 150 150 C100.5 150 51 150 0 150 C0 100.5 0 51 0 0 Z " fill="#CAC5C3" transform="translate(0,0)"/>
<path d="M0 0 C1.9924325 0.37593066 3.9918674 0.71979545 6 1 C6 1.66 6 2.32 6 3 C6.9075 2.896875 7.815 2.79375 8.75 2.6875 C22.72702576 2.79999115 34.94282035 14.5905456 44.16015625 23.859375 C46.970709 27.12940241 49 29.6074497 49 34 C46.60054192 33.96679995 44.21011893 33.89948338 41.8125 33.8125 C41.13896484 33.80669922 40.46542969 33.80089844 39.77148438 33.79492188 C35.87705196 33.62394679 34.09855485 33.07794207 31.01171875 30.63671875 C29 28 29 28 29 25 C26.69 24.67 24.38 24.34 22 24 C21.67 27.96 21.34 31.92 21 36 C21.99 35.67 22.98 35.34 24 35 C23.34 34.67 22.68 34.34 22 34 C22 33.34 22 32.68 22 32 C23.32 31.67 24.64 31.34 26 31 C26 31.99 26 32.98 26 34 C26.66 34 27.32 34 28 34 C27.67 35.65 27.34 37.3 27 39 C25.35 38.67 23.7 38.34 22 38 C25.17539556 41.42578949 25.17539556 41.42578949 29 44 C29 43.34 29 42.68 29 42 C30.9375 42.6875 30.9375 42.6875 33 44 C33.75 46.625 33.75 46.625 34 49 C36.34058637 46.87219421 37.70700306 44.88437779 39 42 C40.32 42 41.64 42 43 42 C42.49401198 47.56586826 42.49401198 47.56586826 39.9375 49.8125 C37.26322994 52.83183716 37.85982313 54.91904242 38.05859375 58.8046875 C37.97800074 61.82423902 36.820551 63.64845496 35 66 C38.3 67.32 41.6 68.64 45 70 C42.79875478 75.50311305 41.78293719 76.03457894 37 79 C36.38125 79.61875 35.7625 80.2375 35.125 80.875 C29.6847018 86.3152982 23.72570141 90.64381178 16 92 C14.515 91.505 14.515 91.505 13 91 C13.66 91 14.32 91 15 91 C15 90.34 15 89.68 15 89 C13.02 88.67 11.04 88.34 9 88 C9.66 89.98 10.32 91.96 11 94 C3.19619635 96.85505012 -4.23107116 97.13930603 -12.4375 97.0625 C-13.35982422 97.05798828 -14.28214844 97.05347656 -15.23242188 97.04882812 C-17.48835048 97.03713938 -19.74413967 97.02075455 -22 97 C-22.33 96.34 -22.66 95.68 -23 95 C-25.1347777 94.65261615 -27.28494515 94.39835306 -29.4375 94.1875 C-36.14809811 93.34266523 -41.23729636 91.47886718 -47 88 C-46.01 87.505 -46.01 87.505 -45 87 C-45.495 86.01 -45.495 86.01 -46 85 C-46.99 85.12375 -47.98 85.2475 -49 85.375 C-54.2122945 85.36453355 -57.18761078 82.2188854 -61 79 C-62.66233205 77.70275957 -64.32896772 76.41101387 -66 75.125 C-67.33387971 74.08403307 -68.66741527 73.04262417 -70 72 C-70 72.99 -70 73.98 -70 75 C-71.98 74.34 -73.96 73.68 -76 73 C-75.67 71.35 -75.34 69.7 -75 68 C-74.34 68 -73.68 68 -73 68 C-73 67.34 -73 66.68 -73 66 C-71.35 66 -69.7 66 -68 66 C-68 65.34 -68 64.68 -68 64 C-66.515 63.505 -66.515 63.505 -65 63 C-65.66 62.67 -66.32 62.34 -67 62 C-67.8125 59.625 -67.8125 59.625 -68 57 C-66.5625 55.1875 -66.5625 55.1875 -65 54 C-65.33 53.505 -65.66 53.01 -66 52.5 C-67.43636358 48.90909106 -67.12851462 45.85543873 -67 42 C-65.68 42 -64.36 42 -63 42 C-63 41.34 -63 40.68 -63 40 C-61.02 39.505 -61.02 39.505 -59 39 C-59.66 38.67 -60.32 38.34 -61 38 C-61 36.35 -61 34.7 -61 33 C-62.98 33 -64.96 33 -67 33 C-67 32.34 -67 31.68 -67 31 C-67.66 31 -68.32 31 -69 31 C-69.33 31.66 -69.66 32.32 -70 33 C-70.66 33 -71.32 33 -72 33 C-71.54987479 28.15665278 -69.19621891 25.19501749 -66.125 21.625 C-65.63757324 21.05426758 -65.15014648 20.48353516 -64.64794922 19.89550781 C-59.05516392 13.59443454 -52.52366073 8.28313172 -44 7 C-44 7.66 -44 8.32 -44 9 C-40.04 7.35 -36.08 5.7 -32 4 C-33.65 4 -35.3 4 -37 4 C-36 2 -36 2 -32.9296875 0.9296875 C-22.29876182 -1.95910751 -10.46468949 -4.6589371 0 0 Z M-74 74 C-73.67 74.66 -73.34 75.32 -73 76 C-73.66 75.67 -74.32 75.34 -75 75 C-74.67 74.67 -74.34 74.34 -74 74 Z " fill="#C9C6C1" transform="translate(86,28)"/>
<path d="M0 0 C1.9924325 0.37593066 3.9918674 0.71979545 6 1 C6 1.66 6 2.32 6 3 C6.9075 2.896875 7.815 2.79375 8.75 2.6875 C22.72702576 2.79999115 34.94282035 14.5905456 44.16015625 23.859375 C46.970709 27.12940241 49 29.6074497 49 34 C46.60054192 33.96679995 44.21011893 33.89948338 41.8125 33.8125 C41.13896484 33.80669922 40.46542969 33.80089844 39.77148438 33.79492188 C35.87705196 33.62394679 34.09855485 33.07794207 31.01171875 30.63671875 C29 28 29 28 29 25 C26.69 24.67 24.38 24.34 22 24 C21.67 27.96 21.34 31.92 21 36 C21.99 35.67 22.98 35.34 24 35 C23.34 34.67 22.68 34.34 22 34 C22 33.34 22 32.68 22 32 C23.32 31.67 24.64 31.34 26 31 C26 31.99 26 32.98 26 34 C26.66 34 27.32 34 28 34 C27.67 35.65 27.34 37.3 27 39 C25.35 38.67 23.7 38.34 22 38 C21.67 39.32 21.34 40.64 21 42 C18.03 42 15.06 42 12 42 C11.67 43.98 11.34 45.96 11 48 C10.67 48 10.34 48 10 48 C9.67 46.35 9.34 44.7 9 43 C2.07 42.505 2.07 42.505 -5 42 C-4.34 40.68 -3.68 39.36 -3 38 C-1.35 38.33 0.3 38.66 2 39 C2 37.35 2 35.7 2 34 C0.02 34.33 -1.96 34.66 -4 35 C-3.690625 33.824375 -3.690625 33.824375 -3.375 32.625 C-3.189375 31.325625 -3.189375 31.325625 -3 30 C-3.99 29.01 -3.99 29.01 -5 28 C-4.34 26.68 -3.68 25.36 -3 24 C-1.68 24 -0.36 24 1 24 C1 23.34 1 22.68 1 22 C-1.64 22 -4.28 22 -7 22 C-7 23.65 -7 25.3 -7 27 C-8.65 27 -10.3 27 -12 27 C-11.67 25.35 -11.34 23.7 -11 22 C-12.65 23.32 -14.3 24.64 -16 26 C-16.495 25.01 -16.495 25.01 -17 24 C-17.99 23.67 -18.98 23.34 -20 23 C-19.65555119 25.47266765 -19.65555119 25.47266765 -19 28 C-18.34 28.33 -17.68 28.66 -17 29 C-18.32 31.64 -19.64 34.28 -21 37 C-21.33 36.34 -21.66 35.68 -22 35 C-23.97888961 34.27306096 -25.97954558 33.60183749 -28 33 C-28 30.69 -28 28.38 -28 26 C-27.01 25.67 -26.02 25.34 -25 25 C-25 24.34 -25 23.68 -25 23 C-27.97 22.67 -30.94 22.34 -34 22 C-33.98839844 23.05960938 -33.97679687 24.11921875 -33.96484375 25.2109375 C-33.95546524 26.59895658 -33.94636511 27.98697755 -33.9375 29.375 C-33.92912109 30.07367188 -33.92074219 30.77234375 -33.91210938 31.4921875 C-33.88671875 36.7734375 -33.88671875 36.7734375 -35 39 C-36.32 38.34 -37.64 37.68 -39 37 C-39 32.38 -39 27.76 -39 23 C-39.66 23 -40.32 23 -41 23 C-41 24.65 -41 26.3 -41 28 C-42.32 27.67 -43.64 27.34 -45 27 C-45 25.68 -45 24.36 -45 23 C-45.99 23 -46.98 23 -48 23 C-48.04898438 23.96421875 -48.09796875 24.9284375 -48.1484375 25.921875 C-48.22320312 27.18515625 -48.29796875 28.4484375 -48.375 29.75 C-48.44460937 31.00296875 -48.51421875 32.2559375 -48.5859375 33.546875 C-48.95323304 36.60998121 -49.39711286 38.41974266 -51 41 C-51.66 41 -52.32 41 -53 41 C-53.33 41.99 -53.66 42.98 -54 44 C-54.12375 43.360625 -54.2475 42.72125 -54.375 42.0625 C-54.58125 41.381875 -54.7875 40.70125 -55 40 C-55.66 39.67 -56.32 39.34 -57 39 C-57.33 40.32 -57.66 41.64 -58 43 C-58.12375 42.360625 -58.2475 41.72125 -58.375 41.0625 C-58.58125 40.381875 -58.7875 39.70125 -59 39 C-59.66 38.67 -60.32 38.34 -61 38 C-61 36.35 -61 34.7 -61 33 C-62.98 33 -64.96 33 -67 33 C-67 32.34 -67 31.68 -67 31 C-67.66 31 -68.32 31 -69 31 C-69.33 31.66 -69.66 32.32 -70 33 C-70.66 33 -71.32 33 -72 33 C-71.54987479 28.15665278 -69.19621891 25.19501749 -66.125 21.625 C-65.63757324 21.05426758 -65.15014648 20.48353516 -64.64794922 19.89550781 C-59.05516392 13.59443454 -52.52366073 8.28313172 -44 7 C-44 7.66 -44 8.32 -44 9 C-40.04 7.35 -36.08 5.7 -32 4 C-33.65 4 -35.3 4 -37 4 C-36 2 -36 2 -32.9296875 0.9296875 C-22.29876182 -1.95910751 -10.46468949 -4.6589371 0 0 Z " fill="#D0CBC5" transform="translate(86,28)"/>
<path d="M0 0 C1.9924325 0.37593066 3.9918674 0.71979545 6 1 C6 1.66 6 2.32 6 3 C6.9075 2.896875 7.815 2.79375 8.75 2.6875 C22.72702576 2.79999115 34.94282035 14.5905456 44.16015625 23.859375 C46.970709 27.12940241 49 29.6074497 49 34 C37.61032021 34.42818345 37.61032021 34.42818345 33.82421875 31.0703125 C32.68963423 29.47928593 31.59406848 27.8597176 30.5390625 26.21484375 C28.20090932 22.85003955 25.64640332 21.82320166 22 20 C20.81967213 19.16481264 19.6530268 18.30999126 18.5 17.4375 C6.07256976 8.51383863 -11.71204371 8.47008337 -26.4296875 10.46484375 C-39.94274179 13.43069593 -49.86995497 21.27688284 -59.11328125 31.2890625 C-61 33 -61 33 -64.25 33.25 C-65.1575 33.1675 -66.065 33.085 -67 33 C-67 32.34 -67 31.68 -67 31 C-67.66 31 -68.32 31 -69 31 C-69.33 31.66 -69.66 32.32 -70 33 C-70.66 33 -71.32 33 -72 33 C-71.54987479 28.15665278 -69.19621891 25.19501749 -66.125 21.625 C-65.63757324 21.05426758 -65.15014648 20.48353516 -64.64794922 19.89550781 C-59.05516392 13.59443454 -52.52366073 8.28313172 -44 7 C-44 7.66 -44 8.32 -44 9 C-40.04 7.35 -36.08 5.7 -32 4 C-33.65 4 -35.3 4 -37 4 C-36 2 -36 2 -32.9296875 0.9296875 C-22.29876182 -1.95910751 -10.46468949 -4.6589371 0 0 Z " fill="#843936" transform="translate(86,28)"/>
<path d="M0 0 C11.17646064 -1.07334912 11.17646064 -1.07334912 15.46875 1.453125 C17.40768398 3.22799534 19.19406067 5.09183769 21 7 C22.66360078 8.00509214 24.32874278 9.00769103 26 10 C26 10.66 26 11.32 26 12 C26.825 12.2475 27.65 12.495 28.5 12.75 C31.16469364 13.7016763 33.30003439 14.66546589 35.75 16 C48.13983007 22.30932075 67.15225179 22.09067649 80.23046875 18.10546875 C88.38646083 14.84997403 95.82560643 11.09269309 101.6328125 4.3828125 C103.68858893 2.30354148 105.6270748 2.01468209 108.48046875 1.90234375 C109.37378906 1.91394531 110.26710938 1.92554687 111.1875 1.9375 C112.08855469 1.94652344 112.98960938 1.95554687 113.91796875 1.96484375 C114.60503906 1.97644531 115.29210937 1.98804687 116 2 C116.495 3.485 116.495 3.485 117 5 C114.70150275 8.49031064 112.72219053 10.25522319 109 12 C108.4225 12.5775 107.845 13.155 107.25 13.75 C101.76351337 19.23648663 95.79878257 23.63098294 88 25 C86.515 24.505 86.515 24.505 85 24 C85.66 24 86.32 24 87 24 C87 23.34 87 22.68 87 22 C85.02 21.67 83.04 21.34 81 21 C81.99 23.97 81.99 23.97 83 27 C75.19619635 29.85505012 67.76892884 30.13930603 59.5625 30.0625 C58.64017578 30.05798828 57.71785156 30.05347656 56.76757812 30.04882812 C54.51164952 30.03713938 52.25586033 30.02075455 50 30 C49.505 29.01 49.505 29.01 49 28 C46.8652223 27.65261615 44.71505485 27.39835306 42.5625 27.1875 C35.85190189 26.34266523 30.76270364 24.47886718 25 21 C25.66 20.67 26.32 20.34 27 20 C26.67 19.34 26.34 18.68 26 18 C25.01 18.12375 24.02 18.2475 23 18.375 C17.7655045 18.34353009 14.7822317 15.31113523 11 12 C9.66582031 10.86304687 9.66582031 10.86304687 8.3046875 9.703125 C1.15737952 3.47213855 1.15737952 3.47213855 0 0 Z " fill="#713939" transform="translate(14,95)"/>
<path d="M0 0 C2.39614126 -0.05425226 4.79103853 -0.09379027 7.1875 -0.125 C8.19780273 -0.15013672 8.19780273 -0.15013672 9.22851562 -0.17578125 C13.32526055 -0.21574949 16.29832014 0.27950091 20 2 C21.9924325 2.37593066 23.9918674 2.71979545 26 3 C26 3.66 26 4.32 26 5 C26.9075 4.896875 27.815 4.79375 28.75 4.6875 C42.72702576 4.79999115 54.94282035 16.5905456 64.16015625 25.859375 C66.970709 29.12940241 69 31.6074497 69 36 C57.61032021 36.42818345 57.61032021 36.42818345 53.82421875 33.0703125 C52.68963423 31.47928593 51.59406848 29.8597176 50.5390625 28.21484375 C48.20090932 24.85003955 45.64640332 23.82320166 42 22 C40.81967213 21.16481264 39.6530268 20.30999126 38.5 19.4375 C31.13186762 14.14672653 23.87777919 13.13475373 15 12 C15.33 10.68 15.66 9.36 16 8 C15.01 7.34 14.02 6.68 13 6 C13 5.34 13 4.68 13 4 C11.35 3.67 9.7 3.34 8 3 C8 2.67 8 2.34 8 2 C5.36 1.67 2.72 1.34 0 1 C0 0.67 0 0.34 0 0 Z " fill="#9C3E3B" transform="translate(66,26)"/>
<path d="M0 0 C0.99 0 1.98 0 3 0 C3.103125 0.639375 3.20625 1.27875 3.3125 1.9375 C3.6528125 2.9584375 3.6528125 2.9584375 4 4 C4.99 4.33 5.98 4.66 7 5 C7 3.35 7 1.7 7 0 C7.66 0 8.32 0 9 0 C9.06058594 0.97582031 9.12117188 1.95164063 9.18359375 2.95703125 C9.30927734 4.86548828 9.30927734 4.86548828 9.4375 6.8125 C9.51871094 8.07707031 9.59992187 9.34164062 9.68359375 10.64453125 C9.87184547 13.99181893 9.87184547 13.99181893 11 17 C13.31 17 15.62 17 18 17 C18.495 18.98 18.495 18.98 19 21 C17.02 21.66 15.04 22.32 13 23 C13.495 23.433125 13.99 23.86625 14.5 24.3125 C16 26 16 26 16 29 C15.01 29.495 15.01 29.495 14 30 C14.99 30.33 15.98 30.66 17 31 C20 34.44444444 20 34.44444444 20 37 C18.56465159 37.2226746 17.12654475 37.42761906 15.6875 37.625 C14.88699219 37.74101563 14.08648437 37.85703125 13.26171875 37.9765625 C11 38 11 38 8 36 C7.72386432 33.24458159 7.62742375 30.74908898 7.6875 28 C7.68266602 26.89398438 7.68266602 26.89398438 7.67773438 25.765625 C7.73292051 20.26707949 7.73292051 20.26707949 10 18 C9.34 17.67 8.68 17.34 8 17 C8 14.69 8 12.38 8 10 C6.68 10 5.36 10 4 10 C4 11.65 4 13.3 4 15 C2.68 15.33 1.36 15.66 0 16 C0.66 17.32 1.32 18.64 2 20 C1.525625 20.33 1.05125 20.66 0.5625 21 C-1.85791615 24.09813267 -1.68198917 27.12026792 -2 31 C-0.68 31.33 0.64 31.66 2 32 C0.75 33.5625 0.75 33.5625 -1 35 C-3 35 -3 35 -5 34 C-6.75 31.4375 -6.75 31.4375 -8 29 C-8.33 29.99 -8.66 30.98 -9 32 C-10.32 31.67 -11.64 31.34 -13 31 C-12.67 32.32 -12.34 33.64 -12 35 C-11.34 34.34 -10.68 33.68 -10 33 C-9.67 34.32 -9.34 35.64 -9 37 C-12.21451269 38.60725635 -15.43612536 38.05748185 -19 38 C-19.6875 36.1875 -19.6875 36.1875 -20 34 C-18.5625 32.25 -18.5625 32.25 -17 31 C-17.33 30.505 -17.66 30.01 -18 29.5 C-19.43636358 25.90909106 -19.12851462 22.85543873 -19 19 C-17.68 19 -16.36 19 -15 19 C-15 18.34 -15 17.68 -15 17 C-13.68 17 -12.36 17 -11 17 C-11 17.99 -11 18.98 -11 20 C-10.34 20 -9.68 20 -9 20 C-9 18.68 -9 17.36 -9 16 C-7.02 16.66 -5.04 17.32 -3 18 C-2.86722656 17.11957031 -2.73445313 16.23914063 -2.59765625 15.33203125 C-2.42105469 14.17058594 -2.24445312 13.00914063 -2.0625 11.8125 C-1.80146484 10.08966797 -1.80146484 10.08966797 -1.53515625 8.33203125 C-1.08620687 5.53674788 -0.57917838 2.77066414 0 0 Z " fill="#CFC9C5" transform="translate(38,51)"/>
<path d="M0 0 C11.17646064 -1.07334912 11.17646064 -1.07334912 15.46875 1.453125 C17.40768398 3.22799534 19.19406067 5.09183769 21 7 C22.66360078 8.00509214 24.32874278 9.00769103 26 10 C26 10.66 26 11.32 26 12 C26.825 12.2475 27.65 12.495 28.5 12.75 C31.16469364 13.7016763 33.30003439 14.66546589 35.75 16 C40.30260628 18.36453194 44.96507137 19.21587177 50 20 C50 21.32 50 22.64 50 24 C51.32 24.33 52.64 24.66 54 25 C54 25.66 54 26.32 54 27 C59.28 27.66 64.56 28.32 70 29 C70 29.33 70 29.66 70 30 C63.4 30 56.8 30 50 30 C49.505 29.01 49.505 29.01 49 28 C46.8652223 27.65261615 44.71505485 27.39835306 42.5625 27.1875 C35.85190189 26.34266523 30.76270364 24.47886718 25 21 C25.66 20.67 26.32 20.34 27 20 C26.67 19.34 26.34 18.68 26 18 C25.01 18.12375 24.02 18.2475 23 18.375 C17.7655045 18.34353009 14.7822317 15.31113523 11 12 C9.66582031 10.86304687 9.66582031 10.86304687 8.3046875 9.703125 C1.15737952 3.47213855 1.15737952 3.47213855 0 0 Z " fill="#954241" transform="translate(14,95)"/>
<path d="M0 0 C0.66 0 1.32 0 2 0 C1.67 1.65 1.34 3.3 1 5 C2.65 5 4.3 5 6 5 C6 3.35 6 1.7 6 0 C8.64 0 11.28 0 14 0 C14 0.66 14 1.32 14 2 C13.360625 2.103125 12.72125 2.20625 12.0625 2.3125 C11.381875 2.539375 10.70125 2.76625 10 3 C9.67 3.99 9.34 4.98 9 6 C9.66 6.66 10.32 7.32 11 8 C10.34 9.65 9.68 11.3 9 13 C10.98 12.67 12.96 12.34 15 12 C14.67 13.32 14.34 14.64 14 16 C9.94393835 15.53199289 6.53411321 15.12046792 3 13 C3.16298584 13.72469482 3.32597168 14.44938965 3.49389648 15.19604492 C3.9699033 17.83325585 4.11490366 20.18993341 4.09765625 22.86328125 C4.09443359 23.74951172 4.09121094 24.63574219 4.08789062 25.54882812 C4.07951172 26.46083984 4.07113281 27.37285156 4.0625 28.3125 C4.05798828 29.24384766 4.05347656 30.17519531 4.04882812 31.13476562 C4.03709234 33.42324373 4.02067363 35.71158808 4 38 C0.47165622 37.39958856 0.09432115 37.12314151 -2.25 34.0625 C-4 31 -4 31 -4 29 C-4.66 29 -5.32 29 -6 29 C-5.67 32.3 -5.34 35.6 -5 39 C-7.4375 38.625 -7.4375 38.625 -10 38 C-11.36421031 35.27157939 -10.87807211 33.39046682 -10.5625 30.375 C-10.40974609 28.87066406 -10.40974609 28.87066406 -10.25390625 27.3359375 C-10.17011719 26.56507812 -10.08632813 25.79421875 -10 25 C-8.68 24.67 -7.36 24.34 -6 24 C-6 23.34 -6 22.68 -6 22 C-6.66 22 -7.32 22 -8 22 C-8 21.01 -8 20.02 -8 19 C-4.60085025 20.13304992 -3.94745549 21.12518475 -2 24 C-2 22.02 -2 20.04 -2 18 C-3.32 17.67 -4.64 17.34 -6 17 C-6 16.67 -6 16.34 -6 16 C-6.66 16 -7.32 16 -8 16 C-7.47352121 13.63084543 -6.83922198 11.65305795 -5.8125 9.4375 C-5.4103125 8.2309375 -5.4103125 8.2309375 -5 7 C-5.66 6.01 -6.32 5.02 -7 4 C-7 3.01 -7 2.02 -7 1 C-3.125 1.875 -3.125 1.875 -2 3 C-1.34 2.01 -0.68 1.02 0 0 Z " fill="#C1B4B0" transform="translate(73,50)"/>
<path d="M0 0 C0.7115625 -0.03738281 1.423125 -0.07476563 2.15625 -0.11328125 C4.25 -0.1484375 4.25 -0.1484375 8 0.375 C10.328125 2.84765625 10.328125 2.84765625 12 5.375 C14.63460948 6.25443404 14.63460948 6.25443404 17 6.375 C16.01 6.705 15.02 7.035 14 7.375 C14 8.035 14 8.695 14 9.375 C15.65 9.375 17.3 9.375 19 9.375 C19 9.705 19 10.035 19 10.375 C18.33581055 10.38958252 17.67162109 10.40416504 16.98730469 10.41918945 C-4.58367193 10.58107903 -4.58367193 10.58107903 -24.2578125 18.484375 C-25.12019531 18.92523438 -25.12019531 18.92523438 -26 19.375 C-26.66 19.045 -27.32 18.715 -28 18.375 C-27.796875 16.4765625 -27.796875 16.4765625 -27 14.375 C-24.890625 13.3984375 -24.890625 13.3984375 -22.25 12.75 C-19.42324245 12.01311021 -16.83014762 11.30484358 -14.125 10.1875 C-12 9.375 -12 9.375 -8 9.375 C-8.99 8.055 -9.98 6.735 -11 5.375 C-10.01 5.375 -9.02 5.375 -8 5.375 C-8 4.715 -8 4.055 -8 3.375 C-9.258125 3.725625 -10.51625 4.07625 -11.8125 4.4375 C-14.94716388 5.31109485 -15.78282108 5.44739297 -19 4.375 C-12.43668658 1.47199599 -7.25460396 0.14456638 0 0 Z " fill="#773A38" transform="translate(68,26.625)"/>
<path d="M0 0 C0.99 0 1.98 0 3 0 C3.103125 0.639375 3.20625 1.27875 3.3125 1.9375 C3.539375 2.618125 3.76625 3.29875 4 4 C4.99 4.33 5.98 4.66 7 5 C7 3.35 7 1.7 7 0 C7.66 0 8.32 0 9 0 C9.06058594 0.97582031 9.12117188 1.95164063 9.18359375 2.95703125 C9.26738281 4.22933594 9.35117187 5.50164063 9.4375 6.8125 C9.51871094 8.07707031 9.59992187 9.34164062 9.68359375 10.64453125 C9.87184547 13.99181893 9.87184547 13.99181893 11 17 C13.31 17 15.62 17 18 17 C18.33 18.32 18.66 19.64 19 21 C17.02 21.66 15.04 22.32 13 23 C13.495 23.433125 13.99 23.86625 14.5 24.3125 C16 26 16 26 16 29 C15.34 29.33 14.68 29.66 14 30 C14.99 30.33 15.98 30.66 17 31 C20 34.44444444 20 34.44444444 20 37 C18.56465159 37.2226746 17.12654475 37.42761906 15.6875 37.625 C14.88699219 37.74101563 14.08648437 37.85703125 13.26171875 37.9765625 C11 38 11 38 8 36 C7.72386432 33.24458159 7.62742375 30.74908898 7.6875 28 C7.68427734 27.26265625 7.68105469 26.5253125 7.67773438 25.765625 C7.73292051 20.26707949 7.73292051 20.26707949 10 18 C9.34 17.67 8.68 17.34 8 17 C8 14.69 8 12.38 8 10 C6.68 10 5.36 10 4 10 C4 11.65 4 13.3 4 15 C3.01 15 2.02 15 1 15 C0.67 10.05 0.34 5.1 0 0 Z " fill="#A06B62" transform="translate(38,51)"/>
<path d="M0 0 C2.97 0 5.94 0 9 0 C9 1.32 9 2.64 9 4 C8.01 4 7.02 4 6 4 C6.33 6.31 6.66 8.62 7 11 C7.763125 11.268125 8.52625 11.53625 9.3125 11.8125 C11.87380884 12.94424112 13.19692938 13.91223401 15 16 C15.33 15.34 15.66 14.68 16 14 C16.33 14.99 16.66 15.98 17 17 C17.66 17.33 18.32 17.66 19 18 C19.40729228 20.32156597 19.74438677 22.6568787 20 25 C17.69 23.02 15.38 21.04 13 19 C13 19.99 13 20.98 13 22 C13.66 22 14.32 22 15 22 C15 22.66 15 23.32 15 24 C13.68 24.33 12.36 24.66 11 25 C11 24.34 11 23.68 11 23 C8 21.66666667 8 21.66666667 5 23 C4.26676204 25.01508358 4.26676204 25.01508358 4 27 C3.01 26.01 2.02 25.02 1 24 C1.99 23.34 2.98 22.68 4 22 C4 20.68 4 19.36 4 18 C1.69 18 -0.62 18 -3 18 C-2.34 17.67 -1.68 17.34 -1 17 C-0.67 11.39 -0.34 5.78 0 0 Z " fill="#CCC6BF" transform="translate(52,50)"/>
<path d="M0 0 C3.39914975 1.13304992 4.05254451 2.12518475 6 5 C6.33 3.35 6.66 1.7 7 0 C8.65 0 10.3 0 12 0 C12 6.27 12 12.54 12 19 C8 18 8 18 5.75 15.0625 C4 12 4 12 4 10 C3.34 10 2.68 10 2 10 C2.33 13.3 2.66 16.6 3 20 C0.5625 19.625 0.5625 19.625 -2 19 C-3.36421031 16.27157939 -2.87807211 14.39046682 -2.5625 11.375 C-2.40974609 9.87066406 -2.40974609 9.87066406 -2.25390625 8.3359375 C-2.17011719 7.56507812 -2.08632813 6.79421875 -2 6 C-0.68 5.67 0.64 5.34 2 5 C2 4.34 2 3.68 2 3 C1.34 3 0.68 3 0 3 C0 2.01 0 1.02 0 0 Z " fill="#64322F" transform="translate(65,69)"/>
<path d="M0 0 C1.423125 -0.061875 2.84625 -0.12375 4.3125 -0.1875 C5.51326172 -0.23970703 5.51326172 -0.23970703 6.73828125 -0.29296875 C9 0 9 0 10.77734375 1.35546875 C12.48442166 3.65157035 12.279866 5.20134002 12 8 C11.67 8.99 11.34 9.98 11 11 C11.96885372 12.68496298 12.96986723 14.35178756 14 16 C14 16.99 14 17.98 14 19 C11.6875 18.8125 11.6875 18.8125 9 18 C7.1875 15.4375 7.1875 15.4375 6 13 C5.34 14.65 4.68 16.3 4 18 C2.68 17.67 1.36 17.34 0 17 C0 11.39 0 5.78 0 0 Z " fill="#7D3B39" transform="translate(98,69)"/>
<path d="M0 0 C2.375 1.5625 2.375 1.5625 4 4 C3.75 7.75 3.75 7.75 3 11 C3.66 11 4.32 11 5 11 C4.34 12.65 3.68 14.3 3 16 C-1.20594226 16.72795155 -3.80104745 17.04973814 -8 16 C-8 11.05 -8 6.1 -8 1 C-4.95713516 -0.01428828 -3.16374283 -0.3858223 0 0 Z " fill="#A76D5D" transform="translate(101,49)"/>
<path d="M0 0 C1.32 0 2.64 0 4 0 C4 2.31 4 4.62 4 7 C4.99 7.33 5.98 7.66 7 8 C6.67 8.66 6.34 9.32 6 10 C5.34 10 4.68 10 4 10 C4.33 15.61 4.66 21.22 5 27 C4.34 27 3.68 27 3 27 C3 24.36 3 21.72 3 19 C2.01 19.33 1.02 19.66 0 20 C0 19.01 0 18.02 0 17 C-0.99 17.33 -1.98 17.66 -3 18 C-4.23076923 12.58461538 -4.23076923 12.58461538 -3.0625 9.625 C-2.711875 9.08875 -2.36125 8.5525 -2 8 C-3.32 7.67 -4.64 7.34 -6 7 C-5.01 6.01 -4.02 5.02 -3 4 C-2.01 4.33 -1.02 4.66 0 5 C0 3.35 0 1.7 0 0 Z " fill="#D2CBC4" transform="translate(42,61)"/>
<path d="M0 0 C1.32 0 2.64 0 4 0 C4.33 2.31 4.66 4.62 5 7 C4.01 7.33 3.02 7.66 2 8 C2 8.99 2 9.98 2 11 C2.66 11.33 3.32 11.66 4 12 C4 12.66 4 13.32 4 14 C3.34 14 2.68 14 2 14 C2.33 15.32 2.66 16.64 3 18 C3.66 17.34 4.32 16.68 5 16 C5.33 17.32 5.66 18.64 6 20 C2.78548731 21.60725635 -0.43612536 21.05748185 -4 21 C-4.6875 19.1875 -4.6875 19.1875 -5 17 C-3.5625 15.25 -3.5625 15.25 -2 14 C-2.33 13.505 -2.66 13.01 -3 12.5 C-4.43636358 8.90909106 -4.12851462 5.85543873 -4 2 C-2.68 2 -1.36 2 0 2 C0 1.34 0 0.68 0 0 Z " fill="#874D4C" transform="translate(23,68)"/>
<path d="M0 0 C1.21816406 0.03480469 1.21816406 0.03480469 2.4609375 0.0703125 C3.68683594 0.09738281 3.68683594 0.09738281 4.9375 0.125 C5.87722656 0.15980469 5.87722656 0.15980469 6.8359375 0.1953125 C6.8359375 1.8453125 6.8359375 3.4953125 6.8359375 5.1953125 C4.8559375 5.1953125 2.8759375 5.1953125 0.8359375 5.1953125 C1.0215625 5.9378125 1.2071875 6.6803125 1.3984375 7.4453125 C1.82796858 10.14522213 1.68716724 11.64162327 0.8359375 14.1953125 C3.8059375 14.6903125 3.8059375 14.6903125 6.8359375 15.1953125 C6.8359375 16.1853125 6.8359375 17.1753125 6.8359375 18.1953125 C3.5359375 18.1953125 0.2359375 18.1953125 -3.1640625 18.1953125 C-3.38526189 15.57081164 -3.59152919 12.94660764 -3.7890625 10.3203125 C-3.85351562 9.57394531 -3.91796875 8.82757813 -3.984375 8.05859375 C-4.12493615 6.1083078 -4.15166099 4.15061783 -4.1640625 2.1953125 C-2.1640625 0.1953125 -2.1640625 0.1953125 0 0 Z " fill="#6E3E44" transform="translate(85.1640625,69.8046875)"/>
<path d="M0 0 C2 1 2 1 3 2 C3.07325168 4.86267567 3.09238205 7.700719 3.0625 10.5625 C3.05798828 11.36880859 3.05347656 12.17511719 3.04882812 13.00585938 C3.03700518 15.00393756 3.01906914 17.00197783 3 19 C-0.86711652 16.5405139 -3.02369386 15.093777 -5 11 C-7.05000871 10.19471111 -7.05000871 10.19471111 -9 10 C-8.01 9.67 -7.02 9.34 -6 9 C-6 8.01 -6 7.02 -6 6 C-6.99 5.67 -7.98 5.34 -9 5 C-9 4.34 -9 3.68 -9 3 C-7.7934375 3.0309375 -7.7934375 3.0309375 -6.5625 3.0625 C-4.06645115 3.29633621 -4.06645115 3.29633621 -3 2 C-2.01 1.34 -1.02 0.68 0 0 Z " fill="#D2CAC3" transform="translate(60,71)"/>
<path d="M0 0 C2.97 0 5.94 0 9 0 C9 1.32 9 2.64 9 4 C8.01 4 7.02 4 6 4 C6.33 6.31 6.66 8.62 7 11 C7.99 11.33 8.98 11.66 10 12 C10 13.32 10 14.64 10 16 C7.03 16 4.06 16 1 16 C0.67 10.72 0.34 5.44 0 0 Z " fill="#A5675D" transform="translate(52,50)"/>
<path d="M0 0 C2.8966148 0.11430048 5.79178316 0.2410424 8.6875 0.375 C9.50412109 0.4059375 10.32074219 0.436875 11.16210938 0.46875 C15.50126633 0.67955924 19.04283457 1.01738759 23 3 C23 4.65 23 6.3 23 8 C20.24769852 7.93990608 17.5007556 7.85287379 14.75 7.75 C13.58404297 7.72873047 13.58404297 7.72873047 12.39453125 7.70703125 C8.56628446 7.54343096 6.58121763 7.43858754 3.453125 5.078125 C2 3 2 3 2 1 C1.34 0.67 0.68 0.34 0 0 Z " fill="#8B3B39" transform="translate(62,116)"/>
<path d="M0 0 C2.4377963 -0.05397335 4.87439685 -0.09365616 7.3125 -0.125 C8.00279297 -0.14175781 8.69308594 -0.15851562 9.40429688 -0.17578125 C13.17135396 -0.21217794 14.78431704 -0.14378864 18 2 C17.67 2.33 17.34 2.66 17 3 C19.97 3.495 19.97 3.495 23 4 C23 4.66 23 5.32 23 6 C23.99 6.33 24.98 6.66 26 7 C26 8.98 26 10.96 26 13 C20.555 12.505 20.555 12.505 15 12 C15.33 10.68 15.66 9.36 16 8 C15.01 7.34 14.02 6.68 13 6 C13 5.34 13 4.68 13 4 C11.35 3.67 9.7 3.34 8 3 C8 2.67 8 2.34 8 2 C5.36 1.67 2.72 1.34 0 1 C0 0.67 0 0.34 0 0 Z " fill="#964547" transform="translate(66,26)"/>
<path d="M0 0 C3.63 0.33 7.26 0.66 11 1 C11 2.32 11 3.64 11 5 C12.32 5.33 13.64 5.66 15 6 C15 6.66 15 7.32 15 8 C20.28 8.66 25.56 9.32 31 10 C31 10.33 31 10.66 31 11 C24.4 11 17.8 11 11 11 C10.67 10.34 10.34 9.68 10 9 C7.87423218 8.53348793 7.87423218 8.53348793 5.4375 8.375 C4.61121094 8.30023438 3.78492188 8.22546875 2.93359375 8.1484375 C2.29550781 8.09945312 1.65742187 8.05046875 1 8 C1.66 7.34 2.32 6.68 3 6 C2.34 5.34 1.68 4.68 1 4 C1.33 3.34 1.66 2.68 2 2 C1.34 2 0.68 2 0 2 C0 1.34 0 0.68 0 0 Z " fill="#8E4645" transform="translate(53,114)"/>
<path d="M0 0 C2.1640625 0.0234375 2.1640625 0.0234375 4.625 0.375 C5.85089844 0.54128906 5.85089844 0.54128906 7.1015625 0.7109375 C7.72804688 0.80632813 8.35453125 0.90171875 9 1 C9 1.66 9 2.32 9 3 C10.3921875 2.8453125 10.3921875 2.8453125 11.8125 2.6875 C17.37561673 2.63026629 22.1511724 5.54489742 27 8 C23.21887512 9.26037496 19.41957339 9.83306057 15.49609375 10.5 C13.01406866 10.88345439 13.01406866 10.88345439 11 12 C10.34 11.67 9.68 11.34 9 11 C8.66666667 9 8.33333333 7 8 5 C7.34 4.67 6.68 4.34 6 4 C6 3.34 6 2.68 6 2 C3.36 2 0.72 2 -2 2 C-1.34 1.34 -0.68 0.68 0 0 Z " fill="#8B3735" transform="translate(83,28)"/>
<path d="M0 0 C0.33 0 0.66 0 1 0 C1 4.95 1 9.9 1 15 C1.99 14.67 2.98 14.34 4 14 C4.33 14.33 4.66 14.66 5 15 C7.33297433 15.04092937 9.66705225 15.04241723 12 15 C12.33 13.68 12.66 12.36 13 11 C12.34 10.67 11.68 10.34 11 10 C11.33 8.35 11.66 6.7 12 5 C12.99 5 13.98 5 15 5 C15 7.97 15 10.94 15 14 C15.99 13.67 16.98 13.34 18 13 C17.34 12.67 16.68 12.34 16 12 C16 11.34 16 10.68 16 10 C17.32 9.67 18.64 9.34 20 9 C20 9.99 20 10.98 20 12 C20.66 12 21.32 12 22 12 C21.67 13.65 21.34 15.3 21 17 C19.35 16.67 17.7 16.34 16 16 C15.67 17.32 15.34 18.64 15 20 C13.68 19.67 12.36 19.34 11 19 C11 18.34 11 17.68 11 17 C10.113125 17.20625 9.22625 17.4125 8.3125 17.625 C5 18 5 18 0 16 C0 10.72 0 5.44 0 0 Z " fill="#CBBEB6" transform="translate(92,50)"/>
<path d="M0 0 C0 2 0 4 0 6 C-6.29304541 8.14328358 -12.62267685 10.12275039 -19 12 C-19 12.99 -19 13.98 -19 15 C-21.5 16.6875 -21.5 16.6875 -24 18 C-23.34206835 16.32986582 -22.67276716 14.6642135 -22 13 C-21.566875 11.7625 -21.13375 10.525 -20.6875 9.25 C-20.130625 8.1775 -19.57375 7.105 -19 6 C-16.78125 5.45703125 -16.78125 5.45703125 -14 5 C-11.92127259 4.18612085 -9.85881545 3.32974438 -7.8125 2.4375 C-2.21246459 0 -2.21246459 0 0 0 Z " fill="#B36C69" transform="translate(60,30)"/>
<path d="M0 0 C1.32 0 2.64 0 4 0 C3.49698795 5.53313253 3.49698795 5.53313253 0.9375 7.9375 C-1.39749938 9.98595117 -1.39749938 9.98595117 -1.25 13.75 C-1.1675 14.8225 -1.085 15.895 -1 17 C-2.65 17.33 -4.3 17.66 -6 18 C-6.07347656 17.11248047 -6.07347656 17.11248047 -6.1484375 16.20703125 C-6.56885803 11.76362115 -7.18395849 8.11636075 -9 4 C-9 3.01 -9 2.02 -9 1 C-8.01 1.33 -7.02 1.66 -6 2 C-5.67 3.65 -5.34 5.3 -5 7 C-2.65941363 4.87219421 -1.29299694 2.88437779 0 0 Z " fill="#884849" transform="translate(125,70)"/>
<path d="M0 0 C-1.65 3.63 -3.3 7.26 -5 11 C-4.01 11 -3.02 11 -2 11 C-6.455 14.96 -6.455 14.96 -11 19 C-11.33 18.34 -11.66 17.68 -12 17 C-12.99 17 -13.98 17 -15 17 C-14.1875 14.5625 -14.1875 14.5625 -13 12 C-12.01 11.67 -11.02 11.34 -10 11 C-9.67 11.99 -9.34 12.98 -9 14 C-7.73964906 11.99414942 -7.73964906 11.99414942 -8.5 9.5625 C-9 7 -9 7 -8 4 C-8.66 3.67 -9.32 3.34 -10 3 C-3.375 -1.125 -3.375 -1.125 0 0 Z " fill="#813935" transform="translate(42,36)"/>
<path d="M0 0 C0.99 0 1.98 0 3 0 C3.103125 0.639375 3.20625 1.27875 3.3125 1.9375 C3.539375 2.618125 3.76625 3.29875 4 4 C4.99 4.33 5.98 4.66 7 5 C7 3.35 7 1.7 7 0 C7.66 0 8.32 0 9 0 C9.33 5.28 9.66 10.56 10 16 C9.34 16 8.68 16 8 16 C8 14.02 8 12.04 8 10 C6.68 10 5.36 10 4 10 C4 11.65 4 13.3 4 15 C3.01 15 2.02 15 1 15 C0.67 10.05 0.34 5.1 0 0 Z " fill="#825352" transform="translate(38,51)"/>
<path d="M0 0 C-1 2 -1 2 -2 3 C-1.01 3 -0.02 3 1 3 C1 3.99 1 4.98 1 6 C1.99 6.33 2.98 6.66 4 7 C4 8.32 4 9.64 4 11 C3.34 11 2.68 11 2 11 C1.34 11.66 0.68 12.32 0 13 C0 10.03 0 7.06 0 4 C-0.66 4 -1.32 4 -2 4 C-2 5.65 -2 7.3 -2 9 C-3.32 8.67 -4.64 8.34 -6 8 C-6 6.68 -6 5.36 -6 4 C-6.99 4 -7.98 4 -9 4 C-9.33 4.99 -9.66 5.98 -10 7 C-10.33 5.35 -10.66 3.7 -11 2 C-7.374967 -1.625033 -4.81746234 -1.01907857 0 0 Z " fill="#CCC0B8" transform="translate(47,47)"/>
<path d="M0 0 C3.38013656 -0.2902789 6.62987314 -0.44722063 10 0 C12.3125 2.4375 12.3125 2.4375 14 5 C16.63460948 5.87943404 16.63460948 5.87943404 19 6 C18.01 6.33 17.02 6.66 16 7 C16 7.66 16 8.32 16 9 C17.65 9 19.3 9 21 9 C21 9.33 21 9.66 21 10 C15.58461538 10.36923077 15.58461538 10.36923077 12.625 8.5 C12.08875 8.005 11.5525 7.51 11 7 C10.67 7.66 10.34 8.32 10 9 C8.68 9 7.36 9 6 9 C6 7.68 6 6.36 6 5 C5.01 5 4.02 5 3 5 C3 4.01 3 3.02 3 2 C2.01 1.34 1.02 0.68 0 0 Z " fill="#742F2D" transform="translate(66,27)"/>
<path d="M0 0 C1.32 0 2.64 0 4 0 C3.979375 0.928125 3.95875 1.85625 3.9375 2.8125 C3.84230396 6.02286011 3.84230396 6.02286011 5 9 C4.01 9.66 3.02 10.32 2 11 C1.67 10.01 1.34 9.02 1 8 C-0.70840281 9.63412443 -1.93453047 10.86906094 -3 13 C-2.01 13 -1.02 13 0 13 C-0.33 13.99 -0.66 14.98 -1 16 C-2.9375 15.25 -2.9375 15.25 -5 14 C-5.875 12 -5.875 12 -6 10 C-5.34 9.34 -4.68 8.68 -4 8 C-3.7834375 7.071875 -3.7834375 7.071875 -3.5625 6.125 C-2.86127118 3.47591333 -1.90005392 1.97042629 0 0 Z " fill="#A54E49" transform="translate(30,40)"/>
<path d="M0 0 C0 0.66 0 1.32 0 2 C0.66 2 1.32 2 2 2 C2.33 4.31 2.66 6.62 3 9 C1.02 9 -0.96 9 -3 9 C-3 7.35 -3 5.7 -3 4 C-8.61 3.34 -14.22 2.68 -20 2 C-20 1.67 -20 1.34 -20 1 C-17.22922802 0.83225597 -14.45839073 0.66576064 -11.6875 0.5 C-10.90181641 0.45230469 -10.11613281 0.40460938 -9.30664062 0.35546875 C-8.54931641 0.31035156 -7.79199219 0.26523438 -7.01171875 0.21875 C-6.31522217 0.17685547 -5.61872559 0.13496094 -4.90112305 0.09179688 C-3.26903034 0.01299029 -1.63399421 0 0 0 Z " fill="#914848" transform="translate(88,115)"/>
<path d="M0 0 C0 0.66 0 1.32 0 2 C-0.7115625 2.556875 -0.7115625 2.556875 -1.4375 3.125 C-3.91815779 6.10178935 -3.68762481 9.18902265 -4 13 C-2.68 13.33 -1.36 13.66 0 14 C-1.25 15.5625 -1.25 15.5625 -3 17 C-5.109375 16.58984375 -5.109375 16.58984375 -7 16 C-8.8633729 6.32740068 -8.8633729 6.32740068 -6.80078125 3.15625 C-4.63731058 1.35423085 -2.88674108 0 0 0 Z " fill="#6F3F3F" transform="translate(40,69)"/>
<path d="M0 0 C0 1.65 0 3.3 0 5 C1.65 5.33 3.3 5.66 5 6 C5 6.66 5 7.32 5 8 C8.63 8 12.26 8 16 8 C16 8.33 16 8.66 16 9 C6.97015433 9.63690134 0.71485433 8.8762059 -7 4 C-6.34 3.67 -5.68 3.34 -5 3 C-5.33 2.01 -5.66 1.02 -6 0 C-3.50907189 -1.24546405 -2.58919267 -0.7767578 0 0 Z " fill="#6D3735" transform="translate(46,112)"/>
<path d="M0 0 C1.32 0 2.64 0 4 0 C4.33 2.31 4.66 4.62 5 7 C4.030625 7.12375 3.06125 7.2475 2.0625 7.375 C0.5465625 7.684375 0.5465625 7.684375 -1 8 C-1.33 8.66 -1.66 9.32 -2 10 C-2.66 10 -3.32 10 -4 10 C-4 7.36 -4 4.72 -4 2 C-2.68 2 -1.36 2 0 2 C0 1.34 0 0.68 0 0 Z " fill="#853E3C" transform="translate(23,68)"/>
<path d="M0 0 C3.34314819 1.45746236 5.6078211 3.30984087 8.1875 5.875 C9.22970703 6.89207031 9.22970703 6.89207031 10.29296875 7.9296875 C12.0423767 10.05139508 12.71061628 11.28773686 13 14 C12.67 14.66 12.34 15.32 12 16 C10.68 15.67 9.36 15.34 8 15 C8.33 14.01 8.66 13.02 9 12 C8.01 12 7.02 12 6 12 C6 11.01 6 10.02 6 9 C5.01 8.34 4.02 7.68 3 7 C2.63837971 5.67405895 2.30271961 4.34061543 2 3 C1.34 2.67 0.68 2.34 0 2 C0 1.34 0 0.68 0 0 Z " fill="#8A3C3A" transform="translate(120,44)"/>
<path d="M0 0 C2.31 0 4.62 0 7 0 C6.34 0.66 5.68 1.32 5 2 C2.375 1.625 2.375 1.625 0 1 C0 0.67 0 0.34 0 0 Z M5 3 C2.02819057 4.89865603 -0.51460083 6.35455571 -4 7 C-3.649375 7.598125 -3.29875 8.19625 -2.9375 8.8125 C-2 11 -2 11 -3 14 C-4.98 13.34 -6.96 12.68 -9 12 C-8.67 10.35 -8.34 8.7 -8 7 C-7.34 7 -6.68 7 -6 7 C-6 6.34 -6 5.68 -6 5 C-4.35 5 -2.7 5 -1 5 C-1 4.34 -1 3.68 -1 3 C2 2 2 2 5 3 Z M-7 13 C-6.67 13.66 -6.34 14.32 -6 15 C-6.66 14.67 -7.32 14.34 -8 14 C-7.67 13.67 -7.34 13.34 -7 13 Z " fill="#C7B7B6" transform="translate(19,89)"/>
<path d="M0 0 C0 0.66 0 1.32 0 2 C-0.639375 2.103125 -1.27875 2.20625 -1.9375 2.3125 C-2.618125 2.539375 -3.29875 2.76625 -4 3 C-4.33 3.99 -4.66 4.98 -5 6 C-4.34 6.66 -3.68 7.32 -3 8 C-3.66 9.65 -4.32 11.3 -5 13 C-3.02 12.67 -1.04 12.34 1 12 C0.67 13.32 0.34 14.64 0 16 C-2.31 15.67 -4.62 15.34 -7 15 C-7 10.38 -7 5.76 -7 1 C-4.53721199 -0.231394 -2.7204945 -0.07159196 0 0 Z " fill="#7E524E" transform="translate(87,50)"/>
<path d="M0 0 C2.97 0 5.94 0 9 0 C9 1.32 9 2.64 9 4 C7.35 4 5.7 4 4 4 C3.34 7.3 2.68 10.6 2 14 C1.67 14 1.34 14 1 14 C0.04738513 9.23692563 -0.08333357 4.8333472 0 0 Z " fill="#8F564C" transform="translate(52,50)"/>
<path d="M0 0 C1.22589844 0.01353516 1.22589844 0.01353516 2.4765625 0.02734375 C3.41628906 0.04474609 3.41628906 0.04474609 4.375 0.0625 C4.375 1.0525 4.375 2.0425 4.375 3.0625 C5.365 3.0625 6.355 3.0625 7.375 3.0625 C7.375 2.4025 7.375 1.7425 7.375 1.0625 C9.355 0.7325 11.335 0.4025 13.375 0.0625 C8.28409091 5.33522727 8.28409091 5.33522727 5.375 7.0625 C3.125 6.75 3.125 6.75 1.375 6.0625 C1.045 4.7425 0.715 3.4225 0.375 2.0625 C-1.605 3.0525 -1.605 3.0525 -3.625 4.0625 C-3.625 3.4025 -3.625 2.7425 -3.625 2.0625 C-4.615 1.7325 -5.605 1.4025 -6.625 1.0625 C-4.21954362 -0.14022819 -2.67503047 -0.03821472 0 0 Z " fill="#904748" transform="translate(105.625,109.9375)"/>
<path d="M0 0 C1.98 0 3.96 0 6 0 C6 1.65 6 3.3 6 5 C6.99 5.33 7.98 5.66 9 6 C8.67 7.32 8.34 8.64 8 10 C8 9.01 8 8.02 8 7 C6.68 7 5.36 7 4 7 C4 7.66 4 8.32 4 9 C2.68 9 1.36 9 0 9 C0 10.65 0 12.3 0 14 C-0.33 14 -0.66 14 -1 14 C-1.33 11.69 -1.66 9.38 -2 7 C-0.68 6.67 0.64 6.34 2 6 C2 4.35 2 2.7 2 1 C1.34 0.67 0.68 0.34 0 0 Z " fill="#D0BFBA" transform="translate(19,61)"/>
<path d="M0 0 C1.32 0.33 2.64 0.66 4 1 C3.67 1.99 3.34 2.98 3 4 C3.99 4 4.98 4 6 4 C6 4.99 6 5.98 6 7 C6.99 7.33 7.98 7.66 9 8 C9.33 7.01 9.66 6.02 10 5 C12 7 12 7 12 10 C7.71 9.67 3.42 9.34 -1 9 C-1.33 8.01 -1.66 7.02 -2 6 C-0.68 5.67 0.64 5.34 2 5 C1.34 3.35 0.68 1.7 0 0 Z " fill="#9F3D3B" transform="translate(123,52)"/>
<path d="M0 0 C0.66 0 1.32 0 2 0 C0.57250019 3.79049707 -1.16236542 7.27122456 -3.125 10.8125 C-3.93324219 12.27623047 -3.93324219 12.27623047 -4.7578125 13.76953125 C-5.16773437 14.50558594 -5.57765625 15.24164063 -6 16 C-6.66 16 -7.32 16 -8 16 C-7.47352121 13.63084543 -6.83922198 11.65305795 -5.8125 9.4375 C-5.544375 8.633125 -5.27625 7.82875 -5 7 C-5.66 6.01 -6.32 5.02 -7 4 C-7 3.01 -7 2.02 -7 1 C-3.125 1.875 -3.125 1.875 -2 3 C-1.34 2.01 -0.68 1.02 0 0 Z " fill="#7F605E" transform="translate(73,50)"/>
<path d="M0 0 C5.30927425 -0.43518641 5.30927425 -0.43518641 8 0 C10.45321644 2.83653151 11 4.25123496 11 8 C8.6875 7.8125 8.6875 7.8125 6 7 C4.1875 4.4375 4.1875 4.4375 3 2 C2.34 3.65 1.68 5.3 1 7 C-0.32 6.67 -1.64 6.34 -3 6 C-2.67 5.34 -2.34 4.68 -2 4 C-1.67 4.33 -1.34 4.66 -1 5 C-0.67 3.35 -0.34 1.7 0 0 Z " fill="#784441" transform="translate(101,80)"/>
<path d="M0 0 C2.67927341 4.01891012 2.15601248 6.24161923 2 11 C1.01 11 0.02 11 -1 11 C-1 10.34 -1 9.68 -1 9 C-1.66 9 -2.32 9 -3 9 C-3.33 9.66 -3.66 10.32 -4 11 C-4.66 11 -5.32 11 -6 11 C-5.55530671 5.96014269 -3.28656638 3.62365012 0 0 Z " fill="#944C4B" transform="translate(20,50)"/>
<path d="M0 0 C0.89203125 0.11085938 1.7840625 0.22171875 2.703125 0.3359375 C3.37859375 0.43132813 4.0540625 0.52671875 4.75 0.625 C4.42 1.945 4.09 3.265 3.75 4.625 C4.74 4.625 5.73 4.625 6.75 4.625 C6.75 5.945 6.75 7.265 6.75 8.625 C5.1 8.625 3.45 8.625 1.75 8.625 C1.75 7.635 1.75 6.645 1.75 5.625 C0.80004839 3.8356557 0.80004839 3.8356557 -1.25 2.625 C-3.92936251 2.07010244 -6.51205737 1.84942153 -9.25 1.625 C-5.9353333 -0.40407167 -3.8184021 -0.50242133 0 0 Z " fill="#A65553" transform="translate(65.25,27.375)"/>
<path d="M0 0 C2.4377963 -0.05397335 4.87439685 -0.09365616 7.3125 -0.125 C8.00279297 -0.14175781 8.69308594 -0.15851562 9.40429688 -0.17578125 C13.17135396 -0.21217794 14.78431704 -0.14378864 18 2 C17.67 2.33 17.34 2.66 17 3 C17.66 3.33 18.32 3.66 19 4 C18.67 4.99 18.34 5.98 18 7 C15.525 6.505 15.525 6.505 13 6 C13 5.34 13 4.68 13 4 C11.35 3.67 9.7 3.34 8 3 C8 2.67 8 2.34 8 2 C5.36 1.67 2.72 1.34 0 1 C0 0.67 0 0.34 0 0 Z " fill="#AC7372" transform="translate(66,26)"/>
<path d="M0 0 C5.94 0.33 11.88 0.66 18 1 C18 1.33 18 1.66 18 2 C15.36 2 12.72 2 10 2 C10.33 3.65 10.66 5.3 11 7 C8.75 7.25 8.75 7.25 6 7 C3.6875 5.125 3.6875 5.125 2 3 C2 2.34 2 1.68 2 1 C1.34 0.67 0.68 0.34 0 0 Z " fill="#6F2E2B" transform="translate(62,116)"/>
<path d="M0 0 C2.97 0.33 5.94 0.66 9 1 C9 1.99 9 2.98 9 4 C9.66 4 10.32 4 11 4 C11 4.66 11 5.32 11 6 C9.68 6.33 8.36 6.66 7 7 C7 6.34 7 5.68 7 5 C4 3.66666667 4 3.66666667 1 5 C0.26676204 7.01508358 0.26676204 7.01508358 0 9 C-0.99 8.01 -1.98 7.02 -3 6 C-2.01 5.34 -1.02 4.68 0 4 C0 2.68 0 1.36 0 0 Z " fill="#C6BAB5" transform="translate(56,68)"/>
<path d="M0 0 C6.53095322 3.00423848 9.41185935 6.84890174 13 13 C9.34683329 11.75023244 8.21934164 11.32901247 6 8 C6 7.01 6 6.02 6 5 C3.69 4.67 1.38 4.34 -1 4 C-1 4.99 -1 5.98 -1 7 C-1.99 7 -2.98 7 -4 7 C-4.66 5.68 -5.32 4.36 -6 3 C-5.195625 2.87625 -4.39125 2.7525 -3.5625 2.625 C-2.716875 2.41875 -1.87125 2.2125 -1 2 C-0.67 1.34 -0.34 0.68 0 0 Z " fill="#D2C8BD" transform="translate(109,48)"/>
<path d="M0 0 C3.875 1.75 3.875 1.75 5 4 C5.039992 5.99960012 5.04346799 8.00047242 5 10 C2.5625 9.625 2.5625 9.625 0 9 C-1.36623674 6.26752652 -1.128426 4.01801098 -1 1 C-0.67 0.67 -0.34 0.34 0 0 Z " fill="#633F3E" transform="translate(63,79)"/>
<path d="M0 0 C2.3125 0.0625 2.3125 0.0625 5 1 C6.8125 4.5625 6.8125 4.5625 8 8 C8.66 8 9.32 8 10 8 C9.34 9.65 8.68 11.3 8 13 C6.35 13 4.7 13 3 13 C3.11859375 12.31292969 3.2371875 11.62585937 3.359375 10.91796875 C3.48828125 10.01691406 3.6171875 9.11585937 3.75 8.1875 C3.88921875 7.29417969 4.0284375 6.40085937 4.171875 5.48046875 C4.27402528 2.83228781 4.27402528 2.83228781 2.015625 1.17578125 C1.35046875 0.78777344 0.6853125 0.39976563 0 0 Z " fill="#864941" transform="translate(96,52)"/>
<path d="M0 0 C1.65 0 3.3 0 5 0 C3.68 0.33 2.36 0.66 1 1 C1.33 3.31 1.66 5.62 2 8 C2.66 8 3.32 8 4 8 C3.67 10.97 3.34 13.94 3 17 C2.01 16.34 1.02 15.68 0 15 C-0.22137393 12.37302936 -0.28162025 9.99106036 -0.1875 7.375 C-0.17396484 6.66859375 -0.16042969 5.9621875 -0.14648438 5.234375 C-0.1111104 3.48925872 -0.05730221 1.74453392 0 0 Z " fill="#945052" transform="translate(98,69)"/>
<path d="M0 0 C0.66 0.66 1.32 1.32 2 2 C1.34 2 0.68 2 0 2 C0.66 3.65 1.32 5.3 2 7 C2.66 7 3.32 7 4 7 C4 8.98 4 10.96 4 13 C1.83125748 12.49396008 0.00032373 12.00016187 -2 11 C-2.25 3.375 -2.25 3.375 0 0 Z " fill="#CABEB8" transform="translate(38,71)"/>
<path d="M0 0 C1.875 0.25 1.875 0.25 4 1 C5.3125 2.9375 5.3125 2.9375 6 5 C5.67 5.66 5.34 6.32 5 7 C6.32 7 7.64 7 9 7 C8.67 8.98 8.34 10.96 8 13 C7.01 13 6.02 13 5 13 C2.58314288 8.77050005 1.65166856 5.87664009 2 1 C1.34 0.67 0.68 0.34 0 0 Z " fill="#91302C" transform="translate(113,43)"/>
<path d="M0 0 C0.66 0 1.32 0 2 0 C2 0.66 2 1.32 2 2 C2.99 1.67 3.98 1.34 5 1 C5.66 2.98 6.32 4.96 7 7 C5.375 7.8125 5.375 7.8125 3 8 C0.75390165 6.53181864 -1.02378677 4.84147142 -3 3 C-2.67 2.34 -2.34 1.68 -2 1 C-1.34 1.33 -0.68 1.66 0 2 C0 1.34 0 0.68 0 0 Z " fill="#823F3A" transform="translate(19,96)"/>
<path d="M0 0 C3.76607955 1.25535985 4.26441793 2.52883585 6 6 C6 6.99 6 7.98 6 9 C0.25 10.125 0.25 10.125 -2 9 C-1.67 7.68 -1.34 6.36 -1 5 C-0.01 5 0.98 5 2 5 C2 4.34 2 3.68 2 3 C1.34 3 0.68 3 0 3 C0 2.01 0 1.02 0 0 Z " fill="#784A48" transform="translate(65,69)"/>
<path d="M0 0 C0.66 0 1.32 0 2 0 C2.40740741 10.18518519 2.40740741 10.18518519 0 15 C-2.625 16.875 -2.625 16.875 -5 18 C-4.67 16.35 -4.34 14.7 -4 13 C-3.34 13 -2.68 13 -2 13 C-1.34 8.71 -0.68 4.42 0 0 Z " fill="#C6B4AE" transform="translate(37,56)"/>
<path d="M0 0 C0.99 0.495 0.99 0.495 2 1 C2.99 0.67 3.98 0.34 5 0 C5 3.96 5 7.92 5 12 C4.01 10.68 3.02 9.36 2 8 C1.67 9.65 1.34 11.3 1 13 C0.67 13 0.34 13 0 13 C0 8.71 0 4.42 0 0 Z " fill="#C5B7AF" transform="translate(77,74)"/>
<path d="M0 0 C3.875 0.875 3.875 0.875 5 2 C5.3125 4.375 5.3125 4.375 5 7 C3 8.8125 3 8.8125 1 10 C0 9 0 9 -0.09765625 6.93359375 C-0.08605469 6.10988281 -0.07445313 5.28617188 -0.0625 4.4375 C-0.05347656 3.61121094 -0.04445313 2.78492188 -0.03515625 1.93359375 C-0.02355469 1.29550781 -0.01195313 0.65742187 0 0 Z " fill="#CFBAB3" transform="translate(96,53)"/>
<path d="M0 0 C2.97 0.495 2.97 0.495 6 1 C6 1.66 6 2.32 6 3 C6.66 3 7.32 3 8 3 C8.33 4.32 8.66 5.64 9 7 C7.35 7 5.7 7 4 7 C4 6.34 4 5.68 4 5 C2.35 4.67 0.7 4.34 -1 4 C-0.67 2.68 -0.34 1.36 0 0 Z " fill="#95393A" transform="translate(47,113)"/>
<path d="M0 0 C2.4375 0.9375 2.4375 0.9375 4.4375 4.9375 C-0.0175 5.4325 -0.0175 5.4325 -4.5625 5.9375 C-4.8925 4.9475 -5.2225 3.9575 -5.5625 2.9375 C-3.72865255 0.52454283 -3.10791561 -0.07580282 0 0 Z " fill="#8F5857" transform="translate(53.5625,83.0625)"/>
<path d="M0 0 C1 3 1 3 0.0625 5.1875 C-0.4634375 6.0846875 -0.4634375 6.0846875 -1 7 C-1.66 7 -2.32 7 -3 7 C-3.33 7.99 -3.66 8.98 -4 10 C-4.12375 9.360625 -4.2475 8.72125 -4.375 8.0625 C-4.684375 7.0415625 -4.684375 7.0415625 -5 6 C-5.66 5.67 -6.32 5.34 -7 5 C-7.33 6.32 -7.66 7.64 -8 9 C-8.36275695 4.52599758 -8.36275695 4.52599758 -6.75 2.1875 C-5 1 -5 1 -1 1 C-0.67 0.67 -0.34 0.34 0 0 Z " fill="#D4CEC8" transform="translate(36,62)"/>
<path d="M0 0 C0.33 0.66 0.66 1.32 1 2 C1.9075 1.814375 2.815 1.62875 3.75 1.4375 C6.68314324 1.04265379 8.2644657 1.05308428 11 2 C8 4 8 4 6 4 C6 4.66 6 5.32 6 6 C5.01 6 4.02 6 3 6 C3 5.01 3 4.02 3 3 C0.36 3.33 -2.28 3.66 -5 4 C-3.36587557 2.29159719 -2.13093906 1.06546953 0 0 Z " fill="#7B3232" transform="translate(107,107)"/>
<path d="M0 0 C2.33333333 2.33333333 4.66666667 4.66666667 7 7 C5.68 7 4.36 7 3 7 C2.67 7.99 2.34 8.98 2 10 C1.34 10 0.68 10 0 10 C-0.33 10.66 -0.66 11.32 -1 12 C-2 11 -2 11 -2.0625 7.9375 C-2.041875 6.968125 -2.02125 5.99875 -2 5 C-1.01 5 -0.02 5 1 5 C0.67 3.35 0.34 1.7 0 0 Z " fill="#B58D84" transform="translate(48,76)"/>
<path d="M0 0 C3.875 1.875 3.875 1.875 5 3 C5.04063832 4.66617115 5.042721 6.33388095 5 8 C2.36 7.67 -0.28 7.34 -3 7 C-3 6.01 -3 5.02 -3 4 C-2.34 3.67 -1.68 3.34 -1 3 C-0.67 2.01 -0.34 1.02 0 0 Z " fill="#8B5754" transform="translate(105,69)"/>
<path d="M0 0 C0.99 0.33 1.98 0.66 3 1 C3 1.66 3 2.32 3 3 C1.1746875 3.6496875 1.1746875 3.6496875 -0.6875 4.3125 C-3.33078127 5.29028015 -5.44589538 6.27141458 -7.875 7.75 C-8.926875 8.36875 -8.926875 8.36875 -10 9 C-10.66 8.67 -11.32 8.34 -12 8 C-11.8125 6.10546875 -11.8125 6.10546875 -11 4 C-8.75 2.98828125 -8.75 2.98828125 -6 2.3125 C-2.71379762 1.69075131 -2.71379762 1.69075131 0 0 Z " fill="#854341" transform="translate(52,37)"/>
<path d="M0 0 C0 2 0 4 0 6 C-4 7.33333333 -8 8.66666667 -12 10 C-12 9.01 -12 8.02 -12 7 C-10.02 6.34 -8.04 5.68 -6 5 C-6 4.01 -6 3.02 -6 2 C-2.25 0 -2.25 0 0 0 Z " fill="#B57F79" transform="translate(60,30)"/>
<path d="M0 0 C2.8125 -0.25 2.8125 -0.25 6 0 C8.04040776 2.04040776 9 3.08325244 9 6 C7.02 6.33 5.04 6.66 3 7 C2.87625 6.030625 2.7525 5.06125 2.625 4.0625 C2.41875 3.051875 2.2125 2.04125 2 1 C1.34 0.67 0.68 0.34 0 0 Z " fill="#633131" transform="translate(88,116)"/>
<path d="M0 0 C3.3 0 6.6 0 10 0 C9.01 0.495 9.01 0.495 8 1 C7.34227572 4.02934491 7.34227572 4.02934491 7 7 C7.66 7 8.32 7 9 7 C9 7.66 9 8.32 9 9 C8.01 9 7.02 9 6 9 C6 7.68 6 6.36 6 5 C5.01 5 4.02 5 3 5 C3 4.01 3 3.02 3 2 C2.01 1.34 1.02 0.68 0 0 Z " fill="#7E3633" transform="translate(66,27)"/>
<path d="M0 0 C0.66 0.33 1.32 0.66 2 1 C2 4.63 2 8.26 2 12 C1.01 11.34 0.02 10.68 -1 10 C-1 8.68 -1 7.36 -1 6 C-1.66 5.67 -2.32 5.34 -3 5 C-2.67 4.01 -2.34 3.02 -2 2 C-1.34 2 -0.68 2 0 2 C0 1.34 0 0.68 0 0 Z " fill="#833E41" transform="translate(74,70)"/>
<path d="M0 0 C2.475 0.495 2.475 0.495 5 1 C5 1.66 5 2.32 5 3 C6.65 2.67 8.3 2.34 10 2 C12 5 12 5 12 8 C8.20608095 6.54938389 4.53496333 5.00850189 1 3 C0.67 2.01 0.34 1.02 0 0 Z " fill="#AA5A53" transform="translate(95,38)"/>
<path d="M0 0 C0.33 0 0.66 0 1 0 C0.67 2.64 0.34 5.28 0 8 C-3.3 8.66 -6.6 9.32 -10 10 C-9.236875 9.401875 -8.47375 8.80375 -7.6875 8.1875 C-5.08664741 6.15995888 -5.08664741 6.15995888 -3.3125 4.25 C-2 3 -2 3 0 3 C0 2.01 0 1.02 0 0 Z " fill="#D4C8C4" transform="translate(29,85)"/>
<path d="M0 0 C0.66 0 1.32 0 2 0 C2.33 2.64 2.66 5.28 3 8 C1.35 8.33 -0.3 8.66 -2 9 C-3 4.125 -3 4.125 -3 3 C-2.01 2.67 -1.02 2.34 0 2 C0 1.34 0 0.68 0 0 Z " fill="#D1CDC8" transform="translate(95,80)"/>
<path d="M0 0 C-1 3 -1 3 -4.3125 4.6875 C-8 6 -8 6 -12 6 C-11 3 -11 3 -7.6875 1.3125 C-4 0 -4 0 0 0 Z " fill="#763F3D" transform="translate(55,33)"/>
<path d="M0 0 C0.99 0.33 1.98 0.66 3 1 C3.33 1.99 3.66 2.98 4 4 C4.66 4.33 5.32 4.66 6 5 C6 5.66 6 6.32 6 7 C3 9 3 9 0.8125 8.625 C0.214375 8.41875 -0.38375 8.2125 -1 8 C-1 4.88742431 -0.82638376 2.89234315 0 0 Z " fill="#975754" transform="translate(21,75)"/>
<path d="M0 0 C0.391875 0.474375 0.78375 0.94875 1.1875 1.4375 C3.40808374 3.35179633 5.13375709 3.61266988 8 4 C5 6 5 6 2 6 C2 6.66 2 7.32 2 8 C1.01 7.67 0.02 7.34 -1 7 C-1.625 4.625 -1.625 4.625 -2 2 C-1.34 1.34 -0.68 0.68 0 0 Z " fill="#D3CCC7" transform="translate(16,86)"/>
<path d="M0 0 C1.21816406 0.03480469 1.21816406 0.03480469 2.4609375 0.0703125 C3.68683594 0.09738281 3.68683594 0.09738281 4.9375 0.125 C5.87722656 0.15980469 5.87722656 0.15980469 6.8359375 0.1953125 C6.8359375 0.5253125 6.8359375 0.8553125 6.8359375 1.1953125 C4.5259375 1.5253125 2.2159375 1.8553125 -0.1640625 2.1953125 C-0.1640625 3.1853125 -0.1640625 4.1753125 -0.1640625 5.1953125 C-0.8240625 5.1953125 -1.4840625 5.1953125 -2.1640625 5.1953125 C-1.8340625 7.1753125 -1.5040625 9.1553125 -1.1640625 11.1953125 C-1.8240625 11.1953125 -2.4840625 11.1953125 -3.1640625 11.1953125 C-3.38581183 9.73895879 -3.59104948 8.28008294 -3.7890625 6.8203125 C-3.90507813 6.00820312 -4.02109375 5.19609375 -4.140625 4.359375 C-4.14835937 3.64523438 -4.15609375 2.93109375 -4.1640625 2.1953125 C-2.1640625 0.1953125 -2.1640625 0.1953125 0 0 Z " fill="#926160" transform="translate(85.1640625,69.8046875)"/>
<path d="M0 0 C0.66 0 1.32 0 2 0 C2 1.32 2 2.64 2 4 C2.66 4 3.32 4 4 4 C5.38938077 5.96147874 6.7260411 7.96166576 8 10 C7.67 10.66 7.34 11.32 7 12 C6.34 11.01 5.68 10.02 5 9 C3.2820354 7.79517061 3.2820354 7.79517061 1.375 6.8125 C0.26125 6.214375 -0.8525 5.61625 -2 5 C-1.34 4.67 -0.68 4.34 0 4 C0 2.68 0 1.36 0 0 Z " fill="#B1675D" transform="translate(110,43)"/>
<path d="M0 0 C0.268125 0.556875 0.53625 1.11375 0.8125 1.6875 C1.99898377 4.0839757 1.99898377 4.0839757 3.625 6.5625 C5 9 5 9 5 12 C4.01 12.33 3.02 12.66 2 13 C0.64560332 10.29120665 0.93498549 7.99066732 1 5 C-0.32 4.67 -1.64 4.34 -3 4 C-2.01 4 -1.02 4 0 4 C0 2.68 0 1.36 0 0 Z " fill="#D2CCC5" transform="translate(76,63)"/>
<path d="M0 0 C0.66 0.33 1.32 0.66 2 1 C1.67 2.65 1.34 4.3 1 6 C-0.32 6.33 -1.64 6.66 -3 7 C-3.33 8.32 -3.66 9.64 -4 11 C-4.8125 8.875 -4.8125 8.875 -5 6 C-3.55576519 3.69892439 -1.89127865 1.98353614 0 0 Z " fill="#773531" transform="translate(26,43)"/>
<path d="M0 0 C2.52259061 1.97420135 2.9929808 2.96745642 3.6875 6.1875 C3.790625 7.115625 3.89375 8.04375 4 9 C2.35 9.66 0.7 10.32 -1 11 C-0.67447917 8.98177083 -0.34895833 6.96354167 -0.0234375 4.9453125 C-0.01570313 4.30335937 -0.00796875 3.66140625 0 3 C-0.66 2.34 -1.32 1.68 -2 1 C-1.34 0.67 -0.68 0.34 0 0 Z " fill="#AA4746" transform="translate(121,48)"/>
<path d="M0 0 C2.0625 0.4375 2.0625 0.4375 4 1 C3.67 2.32 3.34 3.64 3 5 C2.38125 5.12375 1.7625 5.2475 1.125 5.375 C-1.19120832 5.87197356 -1.19120832 5.87197356 -3 8 C-3.33 6.35 -3.66 4.7 -4 3 C-2.68 3.33 -1.36 3.66 0 4 C-0.33 3.01 -0.66 2.02 -1 1 C-0.67 0.67 -0.34 0.34 0 0 Z " fill="#C9B2AF" transform="translate(29,79)"/>
<path d="M0 0 C2.64 0 5.28 0 8 0 C8 1.32 8 2.64 8 4 C5.69 4 3.38 4 1 4 C0.67 2.68 0.34 1.36 0 0 Z " fill="#5A3431" transform="translate(84,71)"/>
<path d="M0 0 C0 1.65 0 3.3 0 5 C-1.32 5 -2.64 5 -4 5 C-4.33 4.34 -4.66 3.68 -5 3 C-7.52733235 2.34444881 -7.52733235 2.34444881 -10 2 C-10 1.67 -10 1.34 -10 1 C-6.59437148 0.22157062 -3.49234244 -0.09978121 0 0 Z " fill="#6D2E29" transform="translate(85,119)"/>
<path d="M0 0 C2.475 0.99 2.475 0.99 5 2 C4.01 2.33 3.02 2.66 2 3 C1.67 4.65 1.34 6.3 1 8 C0.34 8 -0.32 8 -1 8 C-1.625 5.125 -1.625 5.125 -2 2 C-1.34 1.34 -0.68 0.68 0 0 Z " fill="#82332F" transform="translate(33,102)"/>
<path d="M0 0 C0.99 0 1.98 0 3 0 C3.66 0.99 4.32 1.98 5 3 C5.99 3.33 6.98 3.66 8 4 C8 5.32 8 6.64 8 8 C6.25 7.9375 6.25 7.9375 4 7 C2.40498463 4.75835678 1.25456982 2.46433357 0 0 Z " fill="#7C4A4A" transform="translate(69,80)"/>
<path d="M0 0 C1.67542976 0.28604898 3.34385343 0.61781233 5 1 C4.01 2.98 3.02 4.96 2 7 C1.34 7 0.68 7 0 7 C-0.38133299 5.0085944 -0.71325582 3.00720923 -1 1 C-0.67 0.67 -0.34 0.34 0 0 Z " fill="#D3C2BE" transform="translate(120,70)"/>
<path d="M0 0 C2.97 0.495 2.97 0.495 6 1 C6 2.32 6 3.64 6 5 C4.02 5 2.04 5 0 5 C0 3.35 0 1.7 0 0 Z " fill="#864744" transform="translate(56,61)"/>
<path d="M0 0 C0.99 0 1.98 0 3 0 C3.12375 0.61875 3.2475 1.2375 3.375 1.875 C3.87197356 4.19120832 3.87197356 4.19120832 6 6 C5.01 6 4.02 6 3 6 C2.67 8.31 2.34 10.62 2 13 C1.67 13 1.34 13 1 13 C0.67 8.71 0.34 4.42 0 0 Z " fill="#693C3E" transform="translate(38,51)"/>
<path d="M0 0 C2.1640625 0.0234375 2.1640625 0.0234375 4.625 0.375 C5.85089844 0.54128906 5.85089844 0.54128906 7.1015625 0.7109375 C7.72804688 0.80632813 8.35453125 0.90171875 9 1 C9 1.66 9 2.32 9 3 C10.65 3 12.3 3 14 3 C11.64561267 4.42944945 10.51967567 5.08661261 7.75 4.625 C7.1725 4.41875 6.595 4.2125 6 4 C6 3.34 6 2.68 6 2 C3.36 2 0.72 2 -2 2 C-1.34 1.34 -0.68 0.68 0 0 Z " fill="#763635" transform="translate(83,28)"/>
<path d="M0 0 C2 1.375 2 1.375 4 3 C4 3.66 4 4.32 4 5 C3.01 5 2.02 5 1 5 C1.33 6.98 1.66 8.96 2 11 C1.01 11.495 1.01 11.495 0 12 C-1.28571429 3.42857143 -1.28571429 3.42857143 0 0 Z " fill="#A54C49" transform="translate(30,99)"/>
<path d="M0 0 C3.375 0.25 3.375 0.25 7 1 C8.4375 3.0625 8.4375 3.0625 9 5 C7.35 5.66 5.7 6.32 4 7 C3.896875 6.401875 3.79375 5.80375 3.6875 5.1875 C2.91123545 2.71756736 1.92911079 1.67748765 0 0 Z " fill="#884246" transform="translate(118,100)"/>
<path d="M0 0 C0.33 0 0.66 0 1 0 C1 2.64 1 5.28 1 8 C3.64 8 6.28 8 9 8 C9 8.33 9 8.66 9 9 C4.9472484 9.98248524 1.16138263 10.08159574 -3 10 C-2.34 9.67 -1.68 9.34 -1 9 C-0.53348793 6.87423218 -0.53348793 6.87423218 -0.375 4.4375 C-0.30023438 3.61121094 -0.22546875 2.78492188 -0.1484375 1.93359375 C-0.09945312 1.29550781 -0.05046875 0.65742187 0 0 Z " fill="#CCBAAF" transform="translate(52,58)"/>
<path d="M0 0 C-0.33 1.32 -0.66 2.64 -1 4 C-1.56203125 3.84660156 -2.1240625 3.69320312 -2.703125 3.53515625 C-5.05838878 2.98639581 -7.34548104 2.68502401 -9.75 2.4375 C-10.54921875 2.35371094 -11.3484375 2.26992187 -12.171875 2.18359375 C-12.77515625 2.12300781 -13.3784375 2.06242187 -14 2 C-14 1.67 -14 1.34 -14 1 C-12.23103898 0.63659714 -10.45973374 0.28459117 -8.6875 -0.0625 C-7.70136719 -0.25972656 -6.71523438 -0.45695312 -5.69921875 -0.66015625 C-3 -1 -3 -1 0 0 Z " fill="#864A47" transform="translate(68,120)"/>
<path d="M0 0 C0.99 0 1.98 0 3 0 C3 0.99 3 1.98 3 3 C1.54207116 3.05399736 0.08357288 3.09279177 -1.375 3.125 C-2.18710938 3.14820312 -2.99921875 3.17140625 -3.8359375 3.1953125 C-6 3 -6 3 -8 1 C-5.03549787 0.01183262 -3.08189674 -0.07704742 0 0 Z " fill="#803B3A" transform="translate(102,112)"/>
<path d="M0 0 C1.32 0 2.64 0 4 0 C4.5625 1.9375 4.5625 1.9375 5 4 C4 5 4 5 1.4375 5.0625 C0.2309375 5.0315625 0.2309375 5.0315625 -1 5 C-0.67 3.35 -0.34 1.7 0 0 Z " fill="#844242" transform="translate(52,68)"/>
<path d="M0 0 C0.66 0 1.32 0 2 0 C4 3 4 3 5 6 C5.99 6.33 6.98 6.66 8 7 C4.37471432 7.20140476 2.13498292 6.85776765 -1 5 C-0.67 3.35 -0.34 1.7 0 0 Z " fill="#A37163" transform="translate(94,59)"/>
<path d="M0 0 C0.33 0.66 0.66 1.32 1 2 C0.67 2.99 0.34 3.98 0 5 C0.66 5 1.32 5 2 5 C2 5.66 2 6.32 2 7 C1.34 7 0.68 7 0 7 C-0.33 7.99 -0.66 8.98 -1 10 C-1.12375 9.030625 -1.2475 8.06125 -1.375 7.0625 C-1.58125 6.051875 -1.7875 5.04125 -2 4 C-2.66 3.67 -3.32 3.34 -4 3 C-3 1 -3 1 0 0 Z " fill="#AB4E47" transform="translate(110,36)"/>
<path d="M0 0 C2.64 0.33 5.28 0.66 8 1 C8 1.99 8 2.98 8 4 C5.36 4 2.72 4 0 4 C0 2.68 0 1.36 0 0 Z " fill="#84403E" transform="translate(56,114)"/>
<path d="M0 0 C2 2 2 2 2 5 C-2.29 4.67 -6.58 4.34 -11 4 C-11 3.67 -11 3.34 -11 3 C-7.7 3 -4.4 3 -1 3 C-0.67 2.01 -0.34 1.02 0 0 Z " fill="#995F61" transform="translate(133,57)"/>
<path d="M0 0 C0.33 0.99 0.66 1.98 1 3 C1.66 3.66 2.32 4.32 3 5 C2.64644564 7.26274788 2.02455574 8.95088852 1 11 C0.34 11 -0.32 11 -1 11 C-0.690625 9.824375 -0.690625 9.824375 -0.375 8.625 C-0.25125 7.75875 -0.1275 6.8925 0 6 C-0.66 5.34 -1.32 4.68 -2 4 C-1.34 2.68 -0.68 1.36 0 0 Z " fill="#CCBCB3" transform="translate(83,52)"/>
<path d="M0 0 C0 0.66 0 1.32 0 2 C-1.32 2.33 -2.64 2.66 -4 3 C-4.33 4.65 -4.66 6.3 -5 8 C-5.66 8 -6.32 8 -7 8 C-7 5.69 -7 3.38 -7 1 C-4.53721199 -0.231394 -2.7204945 -0.07159196 0 0 Z " fill="#996E6A" transform="translate(87,50)"/>
<path d="M0 0 C2.64 0 5.28 0 8 0 C8.33 0.99 8.66 1.98 9 3 C8.34 3.66 7.68 4.32 7 5 C3.535 3.02 3.535 3.02 0 1 C0 0.67 0 0.34 0 0 Z " fill="#794445" transform="translate(122,97)"/>
<path d="M0 0 C0.66 0 1.32 0 2 0 C2.99 1.98 3.98 3.96 5 6 C4.01 6.495 4.01 6.495 3 7 C2.34 7.99 1.68 8.98 1 10 C0.67 6.7 0.34 3.4 0 0 Z " fill="#C7B5B3" transform="translate(67,79)"/>
<path d="M0 0 C0.33 0.66 0.66 1.32 1 2 C0.01 3.485 0.01 3.485 -1 5 C-1.33 4.34 -1.66 3.68 -2 3 C-3.89533342 2.53476937 -3.89533342 2.53476937 -6.0625 2.375 C-7.361875 2.25125 -8.66125 2.1275 -10 2 C-6.5980513 -0.09350689 -3.94727588 -0.17942163 0 0 Z " fill="#894F51" transform="translate(66,27)"/>
<path d="M0 0 C2.97 0.495 2.97 0.495 6 1 C6 2.32 6 3.64 6 5 C4.35 4.67 2.7 4.34 1 4 C0.67 2.68 0.34 1.36 0 0 Z " fill="#B49491" transform="translate(95,116)"/>
<path d="M0 0 C0 1.65 0 3.3 0 5 C-2.4375 4.1875 -2.4375 4.1875 -5 3 C-5.33 2.01 -5.66 1.02 -6 0 C-3.50907189 -1.24546405 -2.58919267 -0.7767578 0 0 Z " fill="#7E3231" transform="translate(46,112)"/>
<path d="M0 0 C0.66 0 1.32 0 2 0 C2.33 2.31 2.66 4.62 3 7 C-0.16115776 5.63016497 -0.9927092 5.0109362 -3 2 C-2.34 2 -1.68 2 -1 2 C-0.67 1.34 -0.34 0.68 0 0 Z " fill="#803936" transform="translate(27,103)"/>
<path d="M0 0 C2.5 1.25 2.5 1.25 5 3 C5 4.32 5 5.64 5 7 C3.68 7.33 2.36 7.66 1 8 C0.17361624 5.10765685 0 3.11257569 0 0 Z " fill="#CDB5AF" transform="translate(17,77)"/>
<path d="M0 0 C0.99 0 1.98 0 3 0 C3 2.31 3 4.62 3 7 C2.01 7 1.02 7 0 7 C-0.38133299 5.0085944 -0.71325582 3.00720923 -1 1 C-0.67 0.67 -0.34 0.34 0 0 Z " fill="#CBC4C0" transform="translate(60,73)"/>
<path d="M0 0 C0 0.66 0 1.32 0 2 C-0.7115625 2.61875 -0.7115625 2.61875 -1.4375 3.25 C-3.58739668 5.65788428 -3.65045398 7.85408584 -4 11 C-4.33 11 -4.66 11 -5 11 C-5.12375 10.195625 -5.2475 9.39125 -5.375 8.5625 C-5.684375 7.2940625 -5.684375 7.2940625 -6 6 C-6.66 5.67 -7.32 5.34 -8 5 C-2.25 0 -2.25 0 0 0 Z " fill="#885456" transform="translate(40,69)"/>
<path d="M0 0 C3.28788824 3.11016455 5.83735988 6.01618925 8 10 C4.31274141 9.00344362 3.20648538 8.3417689 1.1875 5 C0 2 0 2 0 0 Z " fill="#D7BCB7" transform="translate(114,51)"/>
<path d="M0 0 C2 2 2 2 2 5 C-0 7.1875 -0 7.1875 -2 9 C-2.66 8.67 -3.32 8.34 -4 8 C-3.67 6.68 -3.34 5.36 -3 4 C-2.01 4 -1.02 4 0 4 C0 2.68 0 1.36 0 0 Z " fill="#D0B9B1" transform="translate(28,71)"/>
<path d="M0 0 C0.99 0.33 1.98 0.66 3 1 C3.185625 2.2065625 3.185625 2.2065625 3.375 3.4375 C3.58125 4.283125 3.7875 5.12875 4 6 C4.66 6.33 5.32 6.66 6 7 C4.68 7.33 3.36 7.66 2 8 C0.74335022 5.09399739 0 3.20395416 0 0 Z " fill="#845656" transform="translate(116,71)"/>
<path d="M0 0 C0.99 0 1.98 0 3 0 C3 1.98 3 3.96 3 6 C1.68 5.67 0.36 5.34 -1 5 C-0.67 3.35 -0.34 1.7 0 0 Z " fill="#BB937F" transform="translate(104,55)"/>
<path d="M0 0 C-0.33 1.98 -0.66 3.96 -1 6 C-1.99 6 -2.98 6 -4 6 C-4.33 4.35 -4.66 2.7 -5 1 C-3 0 -3 0 0 0 Z " fill="#973C3A" transform="translate(122,50)"/>
<path d="M0 0 C0 1.65 0 3.3 0 5 C-1.65 5.33 -3.3 5.66 -5 6 C-2.84615385 0 -2.84615385 0 0 0 Z " fill="#943733" transform="translate(32,47)"/>
<path d="M0 0 C0.99 0 1.98 0 3 0 C3 1.32 3 2.64 3 4 C-0.63 3.67 -4.26 3.34 -8 3 C-8 2.67 -8 2.34 -8 2 C-5.36 2 -2.72 2 0 2 C0 1.34 0 0.68 0 0 Z " fill="#A5615E" transform="translate(89,35)"/>
<path d="M0 0 C4.29 0 8.58 0 13 0 C13 0.33 13 0.66 13 1 C10.36 1 7.72 1 5 1 C5 1.66 5 2.32 5 3 C3.68 3 2.36 3 1 3 C0.67 2.01 0.34 1.02 0 0 Z " fill="#96595A" transform="translate(14,95)"/>
<path d="M0 0 C0.99 0 1.98 0 3 0 C3.84454356 3.37817425 4.10844919 5.67465243 3 9 C2.34 9 1.68 9 1 9 C0.67 6.03 0.34 3.06 0 0 Z " fill="#804E4F" transform="translate(83,75)"/>
<path d="M0 0 C0.66 0.33 1.32 0.66 2 1 C1.67 3.31 1.34 5.62 1 8 C0.34 8 -0.32 8 -1 8 C-1.125 2.25 -1.125 2.25 0 0 Z M-3 7 C-2.34 7.66 -1.68 8.32 -1 9 C-1.66 9 -2.32 9 -3 9 C-3 8.34 -3 7.68 -3 7 Z " fill="#C5B8B4" transform="translate(115,70)"/>
<path d="M0 0 C2.375 0.25 2.375 0.25 5 1 C6.3125 3.0625 6.3125 3.0625 7 5 C6.01 5.33 5.02 5.66 4 6 C3.71125 5.195625 3.4225 4.39125 3.125 3.5625 C2.26737432 0.8673532 2.26737432 0.8673532 0 0 Z " fill="#A3534D" transform="translate(98,50)"/>
<path d="M0 0 C2.97 0.495 2.97 0.495 6 1 C6 1.66 6 2.32 6 3 C6.66 3 7.32 3 8 3 C7.67 3.99 7.34 4.98 7 6 C6.34 5.34 5.68 4.68 5 4 C2.42938689 3.35232207 2.42938689 3.35232207 0 3 C0 2.01 0 1.02 0 0 Z " fill="#CBB7B2" transform="translate(64,48)"/>
<path d="M0 0 C3.4375 1.1875 3.4375 1.1875 4.4375 3.1875 C1.1375 2.8575 -2.1625 2.5275 -5.5625 2.1875 C-5.5625 1.5275 -5.5625 0.8675 -5.5625 0.1875 C-3.5625 -0.8125 -3.5625 -0.8125 0 0 Z " fill="#813A3C" transform="translate(105.5625,33.8125)"/>
<path d="M0 0 C0.66 0.33 1.32 0.66 2 1 C2 2.32 2 3.64 2 5 C1.01 5 0.02 5 -1 5 C-1.66 5.66 -2.32 6.32 -3 7 C-3.33 6.01 -3.66 5.02 -4 4 C-3.01 3.67 -2.02 3.34 -1 3 C-0.67 2.01 -0.34 1.02 0 0 Z " fill="#C9C1BB" transform="translate(29,56)"/>
<path d="M0 0 C1.32 0.33 2.64 0.66 4 1 C3.6875 2.875 3.6875 2.875 3 5 C2.01 5.66 1.02 6.32 0 7 C0 4.69 0 2.38 0 0 Z " fill="#D7CCC4" transform="translate(97,56)"/>
<path d="M0 0 C0.99 0 1.98 0 3 0 C2.6875 1.875 2.6875 1.875 2 4 C1.01 4.66 0.02 5.32 -1 6 C-1.33 5.01 -1.66 4.02 -2 3 C-1.34 2.01 -0.68 1.02 0 0 Z " fill="#C4BCBA" transform="translate(21,44)"/>
<path d="M0 0 C0.433125 0.9590625 0.433125 0.9590625 0.875 1.9375 C1.82823451 4.15206079 1.82823451 4.15206079 4 5 C2.1875 5.6875 2.1875 5.6875 0 6 C-1.75 4.5625 -1.75 4.5625 -3 3 C-2.01 3 -1.02 3 0 3 C0 2.01 0 1.02 0 0 Z " fill="#682F2D" transform="translate(105,112)"/>
<path d="M0 0 C1.32 0 2.64 0 4 0 C4 0.99 4 1.98 4 3 C1.36 3.33 -1.28 3.66 -4 4 C-4 3.34 -4 2.68 -4 2 C-2.68 2 -1.36 2 0 2 C0 1.34 0 0.68 0 0 Z " fill="#A26462" transform="translate(23,68)"/>
<path d="M0 0 C0.66 0 1.32 0 2 0 C2.33 1.65 2.66 3.3 3 5 C2.34 5 1.68 5 1 5 C1 6.65 1 8.3 1 10 C0.67 10 0.34 10 0 10 C0 6.7 0 3.4 0 0 Z " fill="#935A4B" transform="translate(93,54)"/>
<path d="M0 0 C0.66 0 1.32 0 2 0 C2.33 1.65 2.66 3.3 3 5 C0.03 4.505 0.03 4.505 -3 4 C-1.625 2 -1.625 2 0 0 Z " fill="#D3C7BE" transform="translate(35,50)"/>
<path d="M0 0 C0.99 0.33 1.98 0.66 3 1 C2.34 2.32 1.68 3.64 1 5 C0.01 4.67 -0.98 4.34 -2 4 C-2 3.01 -2 2.02 -2 1 C-1.34 0.67 -0.68 0.34 0 0 Z " fill="#5C3230" transform="translate(39,35)"/>
<path d="M0 0 C0.33 0.99 0.66 1.98 1 3 C-1.35438733 4.42944945 -2.48032433 5.08661261 -5.25 4.625 C-5.8275 4.41875 -6.405 4.2125 -7 4 C-6.34 4 -5.68 4 -5 4 C-5 3.34 -5 2.68 -5 2 C-3.35 1.34 -1.7 0.68 0 0 Z " fill="#934143" transform="translate(66,33)"/>
<path d="M0 0 C1.32 0 2.64 0 4 0 C4 0.66 4 1.32 4 2 C5.32 2.33 6.64 2.66 8 3 C2.25 4.125 2.25 4.125 0 3 C0 2.01 0 1.02 0 0 Z " fill="#844040" transform="translate(63,75)"/>
<path d="M0 0 C0.66 0.66 1.32 1.32 2 2 C1.34 2 0.68 2 0 2 C0.33 3.98 0.66 5.96 1 8 C0.01 7.67 -0.98 7.34 -2 7 C-1.125 1.125 -1.125 1.125 0 0 Z " fill="#BCA6A4" transform="translate(38,71)"/>
<path d="M0 0 C0 0.99 0 1.98 0 3 C-1.65 3 -3.3 3 -5 3 C-5.33 2.01 -5.66 1.02 -6 0 C-2.25 -1.125 -2.25 -1.125 0 0 Z " fill="#5F302E" transform="translate(105,70)"/>
</svg>
